# xmcd
#
# Track frame offsets: 
#        182
#        11645
#        29955
#        45040
#        59487
#        78927
#        92142
#        109745
#        125107
#        143802
#        157987
#        176760
#        190950
#        208990
#        225985
#
# Disc length: 3230 seconds
#
# Revision: 4
# Processed by: cddbd v1.5.2PL0 Copyright (c) Steve Scherf et al.
# Submitted via: ExactAudioCopy v1.0b1
#
DISCID=cd0c9c0f
DTITLE=Various Artist - Country Lovin' Songs From The Heart
DYEAR=1997
DGENRE=Oldies
TTITLE0=Patty Loveless - Timber I'm Fallin' In Love
TTITLE1=John Michael Montgomery - I Love The Way You Love Me
TTITLE2=Billy Dean - Somewhere In My Broken Heart
TTITLE3=Randy Travis - Look Heart No Hands
TTITLE4=Restless Heart - I'll Still Be Loving You
TTITLE5=Dolly Parton - I Will Always Love You
TTITLE6=Collin Raye - Love Me
TTITLE7=Doug Stone - Faith In Me Faith In You
TTITLE8=Kathy Mattea - Standing Knee Deep In A River (Dying Of Thirst)
TTITLE9=Lee Greenwood - I.O.U.
TTITLE10=Tanya Tucker - Two Sparrows In A Hurricane
TTITLE11=Dan Seals - One Friend
TTITLE12=Crystal Gayle - Straight To The Heart
TTITLE13=Shenandoah - I Got You
TTITLE14=Michael Johnson - Give Me Wings
EXTD=YEAR: 1997
EXTT0=
EXTT1=
EXTT2=
EXTT3=
EXTT4=
EXTT5=
EXTT6=
EXTT7=
EXTT8=
EXTT9=
EXTT10=
EXTT11=
EXTT12=
EXTT13=
EXTT14=
PLAYORDER=
